Coordinates
version=1
nRows=12
nColumns=46
inDegrees=yes

Units are S.I. units (second, meters, Newtons, ...)
Angles are in degrees.

endheader
time	pelvis_tilt	pelvis_list	pelvis_rotation	pelvis_tx	pelvis_ty	pelvis_tz	bb_angle	bb_tx	bb_ty	bb_tz	hip_flexion_r	hip_adduction_r	hip_rotation_r	knee_angle_r	knee_angle_r_beta	ankle_angle_r	subtalar_angle_r	mtp_angle_r	crank_angle_r	hip_flexion_l	hip_adduction_l	hip_rotation_l	knee_angle_l	knee_angle_l_beta	ankle_angle_l	subtalar_angle_l	mtp_angle_l	crank_angle_l	lumbar_extension	lumbar_bending	lumbar_rotation	arm_flex_r	arm_add_r	arm_rot_r	elbow_flex_r	pro_sup_r	wrist_flex_r	wrist_dev_r	arm_flex_l	arm_add_l	arm_rot_l	elbow_flex_l	pro_sup_l	wrist_flex_l	wrist_dev_l
      2.50500000	    -22.89816135	    -13.71606044	    -11.10555019	      0.36499545	      1.06423891	     -0.27285322	      0.00000000	      0.50000000	      0.00000000	      0.25000000	     58.32776147	      5.47985009	     -0.59738661	    104.26368650	      1.81974462	     13.66346089	     13.27671857	      0.00000000	      0.00000000	     43.21454765	    -20.80745845	      0.30690951	     41.97010956	      0.73251660	      6.83278729	     -4.98100432	      0.00000000	      0.00000000	    -50.04883713	      2.42952193	     -3.23290478	     69.72245933	     12.17946637	     19.68175010	     28.45469415	     43.79205604	      0.00000000	      0.00000000	     27.75331706	    -26.06389252	     -2.18751437	     94.97326423	     48.49122073	      0.00000000	      0.00000000
      2.51000000	    -23.10414795	    -13.95147086	    -12.29430876	      0.36345055	      1.06365976	     -0.27334597	      0.00000000	      0.50000000	      0.00000000	      0.25000000	     59.67792901	      5.96415054	     -0.61654257	    105.42418941	      1.83999922	     14.19132441	     13.66017297	      0.00000000	      0.00000000	     42.10004295	    -21.53630762	     -0.05453730	     40.77714682	      0.71169547	      6.11245894	     -4.84011911	      0.00000000	      0.00000000	    -49.94435714	      3.05329250	     -2.21659469	     69.90261973	     12.62582988	     19.68165035	     28.80268031	     43.84153670	      0.00000000	      0.00000000	     27.36089017	    -26.82944366	     -2.20738263	     94.46168820	     48.40883683	      0.00000000	      0.00000000
      2.51500000	    -23.15994527	    -13.94953317	    -13.77923042	      0.36212736	      1.06353273	     -0.27295017	      0.00000000	      0.50000000	      0.00000000	      0.25000000	     60.89946994	      6.71432026	     -0.12922241	    106.56303074	      1.85987575	     15.19891677	     14.46833735	      0.00000000	      0.00000000	     40.64626839	    -22.39212807	     -1.29130242	     39.63451656	      0.69175281	      5.24092947	     -4.66110063	      0.00000000	      0.00000000	    -49.81272610	      3.08525638	     -0.83334082	     68.86320940	     13.13991890	     16.75873726	     31.04649581	     43.71832055	      0.00000000	      0.00000000	     27.79710314	    -28.74107863	     -0.03417143	     92.31024651	     48.35222367	      0.00000000	      0.00000000
      2.52000000	    -23.57728023	    -14.19035722	    -14.86613800	      0.36107323	      1.06305656	     -0.27351452	      0.00000000	      0.50000000	      0.00000000	      0.25000000	     62.33677933	      7.22673199	     -0.21210259	    107.40943682	      1.87464832	     15.38759412	     15.11440501	      0.00000000	      0.00000000	     39.78134480	    -23.10040875	     -1.83398462	     38.55286463	      0.67287442	      4.36047532	     -4.63944499	      0.00000000	      0.00000000	    -49.55186858	      3.83498985	      0.11806743	     68.96439124	     13.51721069	     16.81698618	     31.31284855	     43.76785572	      0.00000000	      0.00000000	     27.27389995	    -29.48203303	      0.06906586	     91.76853259	     48.28032715	      0.00000000	      0.00000000
      2.52500000	    -23.86662354	    -14.20268946	    -16.11098641	      0.36006575	      1.06268792	     -0.27342437	      0.00000000	      0.50000000	      0.00000000	      0.25000000	     63.71470159	      7.85091201	     -0.02550265	    108.33814930	      1.89085741	     16.07198133	     15.78149479	      0.00000000	      0.00000000	     38.74093711	    -23.77783667	     -3.00621647	     37.67342492	      0.65752531	      3.36857210	     -4.78876983	      0.00000000	      0.00000000	    -49.25438365	      4.25516460	      0.87372140	     68.62410320	     14.08812396	     16.75428355	     31.75017122	     43.83272822	      0.00000000	      0.00000000	     26.67735687	    -30.87690021	      0.64134875	     90.64544509	     48.15822727	      0.00000000	      0.00000000
      2.53000000	    -24.05573517	    -14.06561932	    -17.04517285	      0.35916671	      1.06273525	     -0.27402997	      0.00000000	      0.50000000	      0.00000000	      0.25000000	     64.96604069	      8.12761356	      0.17965636	    109.12027743	      1.90450812	     16.74339594	     16.27956821	      0.00000000	      0.00000000	     37.59967455	    -23.99232489	     -3.89689616	     36.60801198	      0.63893034	      2.47534144	     -4.83679106	      0.00000000	      0.00000000	    -49.03109548	      4.59865669	      2.27308761	     67.79250027	     14.02802408	     14.52955910	     33.74639158	     43.82066043	      0.00000000	      0.00000000	     28.31077608	    -32.10892384	      4.22488668	     87.98739356	     48.11223299	      0.00000000	      0.00000000
      2.53500000	    -24.52436504	    -14.17933974	    -17.94503098	      0.35874090	      1.06267018	     -0.27472627	      0.00000000	      0.50000000	      0.00000000	      0.25000000	     66.30960371	      8.52772628	      0.01944009	    109.66850956	      1.91407658	     17.32476057	     16.47915266	      0.00000000	      0.00000000	     36.78978161	    -24.44620285	     -4.57164413	     35.57459899	      0.62089388	      1.49797476	     -4.72139366	      0.00000000	      0.00000000	    -48.82905669	      5.38018472	      3.04698955	     67.81635961	     14.40275901	     14.57036436	     33.95191970	     43.85893732	      0.00000000	      0.00000000	     27.91314727	    -32.64802886	      4.39720196	     87.42532335	     48.04340795	      0.00000000	      0.00000000
      2.54000000	    -24.60233654	    -13.98005324	    -18.80223349	      0.35824576	      1.06319276	     -0.27534182	      0.00000000	      0.50000000	      0.00000000	      0.25000000	     67.34056121	      8.80103983	      0.27115235	    110.19535110	      1.92327170	     17.97068281	     16.91698640	      0.00000000	      0.00000000	     35.56198364	    -24.55876515	     -5.78764677	     34.60589523	      0.60398681	      0.33276833	     -5.05152903	      0.00000000	      0.00000000	    -48.70628940	      5.70666659	      4.20115288	     67.36318721	     14.58101054	     13.21232067	     34.75286151	     43.77708364	      0.00000000	      0.00000000	     29.47543065	    -33.72714317	      7.88210480	     84.52982158	     47.94692463	      0.00000000	      0.00000000
      2.54500000	    -24.91594233	    -13.95940511	    -19.49542569	      0.35773805	      1.06359925	     -0.27593594	      0.00000000	      0.50000000	      0.00000000	      0.25000000	     68.50004044	      9.10030425	      0.19639805	    110.52412433	      1.92900987	     18.58252151	     17.19872537	      0.00000000	      0.00000000	     34.73195296	    -24.79300211	     -6.58328379	     33.74403496	      0.58894451	     -0.64531896	     -4.86441012	      0.00000000	      0.00000000	    -48.68696756	      6.41214751	      4.76404728	     67.54366721	     15.04233120	     13.30643491	     34.97870053	     43.82313243	      0.00000000	      0.00000000	     29.22218973	    -34.16393619	      8.11739653	     83.93201312	     47.87763179	      0.00000000	      0.00000000
      2.55000000	    -24.86059805	    -13.62872603	    -20.20259840	      0.35766213	      1.06475456	     -0.27646054	      0.00000000	      0.50000000	      0.00000000	      0.25000000	     69.29584656	      9.30856094	      0.60310723	    110.80382738	      1.93389161	     19.35545797	     17.83873379	      0.00000000	      0.00000000	     33.35778373	    -24.69176132	     -8.00660584	     32.70853086	      0.57087156	     -1.79473732	     -4.87557525	      0.00000000	      0.00000000	    -48.87882581	      6.66768748	      5.22108801	     67.59926566	     15.53166548	     13.10018332	     35.00090162	     43.78795822	      0.00000000	      0.00000000	     29.85051317	    -35.16360852	      9.88608845	     82.02914290	     47.74493707	      0.00000000	      0.00000000
      2.55500000	    -25.04489787	    -13.64564488	    -20.30216911	      0.35702740	      1.06541520	     -0.27785784	      0.00000000	      0.50000000	      0.00000000	      0.25000000	     70.23678422	      9.13824101	      0.39714320	    110.94573334	      1.93636834	     20.09030926	     18.29205316	      0.00000000	      0.00000000	     32.77519743	    -24.55897132	     -8.22511291	     31.99539882	      0.55842505	     -3.04000778	     -5.05038971	      0.00000000	      0.00000000	    -48.96268209	      7.71937689	      5.83436228	     67.89756008	     15.75274949	     12.70055502	     34.99188163	     43.71816270	      0.00000000	      0.00000000	     30.98537077	    -35.64794088	     11.62433280	     79.82751276	     47.56637350	      0.00000000	      0.00000000
      2.56000000	    -25.18179619	    -13.43015629	    -20.74930307	      0.35697492	      1.06656656	     -0.27858640	      0.00000000	      0.50000000	      0.00000000	      0.25000000	     71.08950656	      9.23017963	      0.53809686	    110.93986876	      1.93626598	     20.79202357	     18.79073551	      0.00000000	      0.00000000	     31.86295221	    -24.44624505	     -9.13448187	     31.14815872	      0.54363793	     -4.16983762	     -4.83270171	      0.00000000	      0.00000000	    -49.08741763	      8.18331528	      6.49258663	     68.01538395	     15.84652763	     12.44351312	     35.18693633	     43.70836963	      0.00000000	      0.00000000	     31.85445806	    -35.84699450	     12.84550466	     78.06600729	     47.41944995	      0.00000000	      0.00000000
